<?xml version="1.0" standalone="no"?>
<!DOCTYPE svg PUBLIC "-//W3C//DTD SVG 20010904//EN"
 "http://www.w3.org/TR/2001/REC-SVG-20010904/DTD/svg10.dtd">
<svg version="1.0" xmlns="http://www.w3.org/2000/svg"
 width="587.000000pt" height="587.000000pt" viewBox="0 0 587.000000 587.000000"
 preserveAspectRatio="xMidYMid meet">
<metadata>
Created by potrace 1.14, written by Peter Selinger 2001-2017
</metadata>
<g transform="translate(0.000000,587.000000) scale(0.100000,-0.100000)"
fill="#000000" stroke="none">
<path d="M2955 5270 c-141 -16 -238 -42 -387 -105 -287 -122 -449 -248 -628
-490 -145 -195 -228 -420 -251 -684 -13 -153 12 -381 43 -381 6 0 8 -11 5 -29
-12 -58 49 -68 63 -10 5 19 10 9 24 -45 20 -81 80 -216 95 -216 6 0 11 -8 11
-17 1 -54 62 -180 96 -195 13 -6 27 -23 30 -37 38 -167 74 -218 203 -285 93
-48 237 -88 361 -100 171 -17 405 -4 512 30 16 5 68 -38 68 -56 0 -4 -26 -23
-57 -43 -114 -70 -449 -481 -607 -745 -39 -65 -76 -98 -99 -89 -16 6 -44 285
-34 335 8 37 5 40 -110 97 l-91 45 -823 -6 c-453 -3 -852 -6 -887 -8 -94 -4
-97 -10 -95 -164 3 -152 10 -280 24 -422 15 -165 77 -578 89 -601 9 -15 18
-19 35 -15 13 3 27 1 30 -4 4 -7 29 -9 61 -6 30 2 54 1 54 -2 0 -22 20 -177
25 -191 3 -9 17 -24 32 -33 24 -14 94 -17 528 -23 351 -4 528 -3 595 5 52 6
172 15 265 20 94 5 262 16 375 24 113 8 238 17 278 19 63 4 76 8 90 28 9 13
61 72 117 131 l100 108 137 0 137 0 78 -47 78 -48 228 2 c329 2 644 32 683 64
14 12 625 7 894 -7 127 -6 159 3 146 43 -6 19 -20 20 -337 33 -194 7 -394 10
-486 5 l-155 -7 7 24 c4 12 14 35 21 50 19 37 18 196 -2 273 -8 33 -19 76 -24
95 -27 104 -172 466 -243 605 -73 142 -124 226 -212 351 -89 124 -132 173
-190 212 -22 15 -49 38 -59 51 -11 13 -34 30 -52 37 -19 8 -41 26 -51 40 -16
26 -16 27 4 43 11 9 55 43 98 76 87 67 159 142 207 216 21 32 47 58 73 71 90
46 155 118 187 209 6 19 17 39 24 44 7 6 19 33 27 60 12 43 18 50 41 53 34 4
48 34 72 152 11 55 14 104 10 142 -7 67 3 69 35 7 18 -36 24 -40 52 -37 28 3
33 7 39 43 8 47 2 124 -18 213 -15 66 -95 275 -140 364 -51 101 -150 233 -257
344 -223 231 -448 350 -707 373 -168 15 -404 21 -485 11z m1274 -575 c26 -38
74 -114 106 -169 44 -75 54 -100 44 -106 -19 -12 -39 2 -78 54 -38 51 -46 56
-36 26 7 -21 -9 -50 -27 -50 -5 0 -23 15 -40 33 -21 22 -28 26 -23 12 16 -43
16 -52 -1 -65 -20 -17 -28 -8 -106 115 -27 44 -59 87 -70 96 -11 9 -18 24 -16
35 5 30 44 29 74 -1 14 -14 24 -23 22 -18 -2 4 -10 20 -17 35 -17 33 -9 58 18
58 24 0 19 23 -12 57 -11 12 -17 29 -14 37 4 9 -5 28 -18 45 -53 62 -21 42 61
-39 47 -47 107 -116 133 -155z m-2002 174 c-31 -27 -86 -89 -121 -136 -54 -72
-63 -89 -53 -104 8 -13 8 -25 -2 -45 -11 -25 -10 -30 10 -45 22 -16 22 -19 9
-59 -13 -40 -16 -42 -46 -37 -27 5 -33 1 -43 -20 -9 -20 -16 -24 -36 -19 -21
5 -27 1 -41 -31 -65 -155 -113 -372 -115 -518 0 -44 -4 -98 -8 -120 l-8 -40
-9 50 c-14 75 -8 280 10 381 44 239 146 440 324 639 39 44 169 155 181 155 3
0 -21 -23 -52 -51z m1801 -346 l23 -42 -31 -28 c-18 -15 -37 -28 -43 -28 -16
0 -78 96 -75 115 3 14 54 29 88 26 8 -1 25 -20 38 -43z m-176 -33 c37 -60 46
-105 23 -114 -10 -3 -24 -1 -31 5 -11 9 -17 9 -28 0 -19 -16 -42 -4 -66 34
-22 36 -18 65 9 65 14 0 17 7 13 31 -4 29 -3 30 24 27 21 -2 35 -14 56 -48z
m-1702 -5 c7 -9 10 -25 6 -41 -9 -33 -49 -31 -54 4 -7 48 21 69 48 37z m129
-39 c9 -11 10 -20 1 -36 -13 -25 -43 -23 -48 3 -8 42 23 63 47 33z m1375 -38
c17 -38 11 -58 -16 -58 -27 0 -47 27 -48 63 0 22 4 27 25 27 20 0 29 -8 39
-32z m-170 -4 c19 -7 21 -50 4 -57 -18 -6 -48 11 -48 26 0 7 5 18 12 25 14 14
12 14 32 6z m-444 -118 c18 -43 34 -93 36 -110 5 -29 2 -33 -53 -62 -67 -35
-82 -70 -40 -93 21 -11 55 -10 203 4 207 21 227 26 222 58 -2 18 -17 26 -81
47 l-79 25 6 70 c4 38 10 73 15 78 12 12 140 -147 229 -283 41 -63 81 -120 88
-126 13 -11 34 -150 34 -228 0 -35 -2 -38 -22 -31 -13 4 -46 12 -75 19 -28 6
-62 21 -75 33 -48 44 -99 63 -171 63 -83 0 -116 -16 -157 -75 -17 -25 -39 -45
-49 -45 -36 0 -136 -41 -153 -63 -10 -12 -18 -38 -18 -57 l0 -35 -52 3 c-46 3
-87 -5 -174 -33 -18 -6 -22 -2 -27 25 -5 24 -16 35 -49 50 -24 11 -53 20 -65
20 -12 0 -34 11 -50 24 -50 42 -89 56 -153 56 -77 0 -111 -19 -150 -81 -25
-41 -36 -49 -91 -68 -35 -11 -67 -21 -72 -21 -11 0 -4 385 7 411 11 25 49 12
42 -14 -13 -53 40 -60 129 -19 33 16 92 41 130 55 39 15 85 36 103 47 32 19
33 22 20 42 -14 21 -11 24 56 68 39 26 95 73 125 104 30 32 52 52 49 44 -32
-85 -33 -88 -16 -104 9 -9 39 -19 65 -21 l49 -5 66 78 c67 81 148 209 148 234
0 27 19 -4 50 -84z m1079 -527 c48 -29 69 -56 86 -115 12 -41 13 -61 5 -98
-20 -88 -90 -169 -176 -202 -33 -13 -45 -25 -67 -70 -110 -224 -580 -480 -984
-534 -131 -18 -371 -8 -498 20 -117 26 -253 88 -292 134 -31 37 -59 97 -68
147 l-7 36 99 6 c110 7 235 28 334 58 83 24 97 43 101 135 3 68 4 69 38 86 26
13 60 18 131 18 l95 0 23 -56 c13 -30 34 -62 46 -70 58 -38 307 -35 516 6 106
21 143 36 173 69 16 17 17 30 12 83 l-7 63 44 28 c67 41 92 34 92 -28 0 -25 4
-30 24 -30 26 0 36 24 97 238 11 36 26 65 42 77 33 27 97 26 141 -1z m-563
-177 c23 -12 37 -60 49 -158 4 -35 1 -54 -7 -61 -18 -14 -187 -51 -293 -64
-49 -6 -128 -9 -174 -7 -98 5 -110 14 -135 102 -22 76 -21 143 3 155 72 39
500 64 557 33z m-1018 -98 c12 -2 22 -11 22 -18 0 -8 7 -27 15 -42 18 -35 20
-149 2 -183 -17 -33 -96 -55 -265 -75 -75 -9 -149 -18 -164 -21 -15 -2 -40 0
-56 6 -62 21 -103 184 -57 228 27 26 243 99 324 110 61 8 125 6 179 -5z m1101
-640 l22 -37 -37 -56 c-38 -56 -305 -331 -322 -331 -6 0 -7 34 -5 83 5 80 4
85 -31 151 -20 38 -35 70 -34 71 2 2 39 15 83 30 59 19 284 112 302 124 0 1
11 -15 22 -35z m119 -95 c34 -62 -5 -265 -78 -412 -31 -63 -139 -206 -155
-207 -21 0 -195 200 -195 225 0 7 36 43 81 81 84 72 197 193 270 289 23 31 47
54 53 52 6 -2 17 -14 24 -28z m129 -101 c46 -51 164 -216 222 -311 102 -168
257 -526 326 -754 30 -98 37 -135 38 -218 2 -91 -1 -105 -25 -156 -20 -39 -38
-61 -60 -72 -65 -32 -259 -52 -605 -63 l-221 -7 -46 29 c-25 16 -46 32 -46 35
0 3 11 11 25 17 28 13 34 49 9 59 -9 3 -36 -4 -60 -16 -37 -17 -63 -21 -144
-21 -55 0 -100 3 -100 7 0 3 6 14 13 22 23 27 47 99 47 141 0 52 -14 85 -62
148 l-40 54 105 -4 c88 -2 110 -6 134 -24 41 -30 83 -119 86 -182 2 -33 9 -57
18 -63 21 -13 27 -11 39 11 31 58 -45 248 -114 285 -20 11 -36 22 -36 26 0 4
37 9 83 13 45 4 130 14 190 22 106 15 109 15 237 -11 71 -14 134 -23 140 -20
12 8 13 42 1 49 -4 3 -66 17 -136 31 -125 25 -131 25 -234 11 -133 -18 -291
-30 -291 -22 0 3 -11 74 -25 157 -25 151 -25 151 -6 207 11 32 24 76 30 99
l12 42 36 -40 c43 -48 87 -72 113 -64 23 7 123 127 168 200 57 93 109 249 119
353 3 39 9 72 13 72 4 0 25 -19 47 -42z m-650 -179 l-5 -100 -92 -65 c-50 -36
-93 -64 -96 -62 -4 4 22 72 61 163 33 76 111 179 127 169 6 -4 8 -49 5 -105z
m-202 -76 c-33 -78 -65 -172 -65 -189 0 -36 50 -45 101 -18 l31 16 -5 -29
c-15 -77 -17 -124 -7 -142 7 -15 6 -30 -5 -58 -19 -50 -75 -332 -68 -350 3 -7
13 -14 22 -14 9 -1 -6 -5 -34 -10 -32 -6 -84 -5 -147 2 l-97 12 6 31 c11 65
76 304 99 365 29 77 30 101 5 101 -24 0 -35 -14 -60 -80 -26 -67 -97 -337
-106 -402 -7 -47 -8 -47 -86 -88 -84 -44 -109 -69 -109 -111 0 -35 51 -79 91
-79 16 0 29 -4 29 -9 0 -5 -34 -11 -75 -13 -67 -3 -76 -1 -81 16 -4 10 -14 93
-23 183 -13 120 -14 166 -6 173 6 5 49 10 95 12 77 3 85 5 85 23 0 13 -10 23
-30 29 -16 6 -31 11 -33 12 -10 6 135 226 227 344 76 99 240 290 248 290 3 0
2 -8 -2 -17z m255 -93 c0 -5 -5 -10 -11 -10 -5 0 -7 5 -4 10 3 6 8 10 11 10 2
0 4 -4 4 -10z m-106 -122 c-33 -67 -36 -69 -28 -27 11 55 23 79 39 79 12 0 10
-10 -11 -52z m-998 -2 c12 -5 30 -131 39 -276 11 -178 56 -561 71 -612 6 -19
39 -24 49 -8 3 5 1 54 -4 107 -14 134 -48 500 -56 598 -3 44 -8 97 -11 118
l-6 39 31 -16 c36 -19 38 -26 46 -166 3 -58 15 -181 26 -275 11 -93 22 -199
24 -234 3 -35 9 -89 14 -120 5 -31 10 -91 10 -133 l2 -78 -43 -2 c-24 -1 -61
-2 -83 -4 -187 -12 -798 -23 -1195 -22 -267 0 -497 -3 -511 -7 l-26 -6 -17
118 c-51 366 -67 532 -82 839 l-6 122 43 5 c24 4 242 9 484 12 242 4 443 7
447 8 17 4 743 -3 754 -7z m764 -643 c104 -8 172 -36 223 -92 40 -44 45 -68
26 -131 -14 -47 -84 -101 -153 -118 -67 -17 -85 -3 -56 43 44 71 15 91 -65 45
-79 -45 -102 -22 -44 45 33 37 33 65 1 65 -21 0 -85 -44 -116 -79 -20 -22 -76
-30 -76 -11 0 17 30 73 53 98 15 16 32 22 61 22 50 0 69 11 64 36 -5 28 -111
33 -147 6 -47 -34 -100 -54 -126 -48 -45 11 -27 34 68 85 86 47 96 50 147 46
30 -3 93 -8 140 -12z m-320 -285 c34 -25 118 -30 143 -9 13 10 16 8 22 -9 3
-11 18 -26 32 -33 l25 -14 -46 -34 -46 -34 -133 8 c-72 5 -133 10 -134 10 0 1
-4 32 -8 70 l-7 67 61 0 c48 0 68 -5 91 -22z m316 -112 c11 -8 30 -16 44 -18
22 -3 17 -11 -65 -99 -53 -56 -93 -91 -97 -85 -3 6 -8 40 -9 76 l-3 64 50 38
c56 43 53 42 80 24z m-266 -76 l67 0 7 -70 c4 -38 7 -73 7 -77 -1 -5 -54 -11
-118 -15 -65 -3 -174 -11 -243 -17 -141 -13 -390 -28 -655 -40 -99 -5 -319 -5
-490 0 -170 4 -347 8 -392 9 -93 0 -85 -9 -98 117 l-7 62 609 -1 c569 0 792 7
1023 32 41 5 108 7 149 4 41 -2 104 -4 141 -4z"/>
<path d="M3197 3839 c-90 -21 -161 -79 -155 -128 5 -37 20 -36 73 8 102 84
239 80 374 -10 65 -43 95 -46 89 -7 -5 32 -101 94 -191 123 -81 26 -125 29
-190 14z"/>
<path d="M2233 3716 c-113 -37 -248 -190 -188 -213 11 -4 34 15 73 57 62 69
134 110 193 110 20 0 62 -9 94 -20 62 -21 75 -20 75 11 0 47 -162 83 -247 55z"/>
<path d="M2764 3035 c-11 -27 7 -35 74 -35 37 0 83 -4 102 -10 38 -11 66 4 51
28 -19 31 -216 46 -227 17z"/>
<path d="M3317 3570 c-65 -4 -147 -13 -182 -20 -61 -11 -65 -14 -65 -39 1
-109 132 -211 256 -198 106 11 168 78 180 195 6 56 5 59 -17 65 -13 4 -31 6
-39 5 -8 0 -68 -4 -133 -8z m-62 -133 c8 -24 6 -31 -10 -43 -41 -30 -84 0 -71
50 6 23 11 27 39 24 24 -2 34 -9 42 -31z m73 14 c23 -14 10 -46 -21 -49 -31
-4 -46 20 -27 43 14 17 29 19 48 6z"/>
<path d="M2330 3451 c-117 -18 -190 -41 -190 -61 0 -27 30 -78 63 -107 62 -54
154 -65 228 -27 64 32 119 133 105 190 -6 21 -12 24 -49 23 -23 0 -94 -9 -157
-18z m53 -88 c14 -8 7 -33 -10 -33 -14 0 -15 -2 -5 -9 18 -11 -14 -17 -83 -16
-45 0 -50 3 -53 23 -7 49 3 55 76 47 37 -4 70 -9 75 -12z"/>
</g>
</svg>
